<svg width="219" height="40" fill="none" xmlns="http://www.w3.org/2000/svg"><g clip-path="url(#a)"><path d="M19.283 39.456h16.974a3.203 3.203 0 0 0 3.203-3.204V19.28C39.455 8.634 30.826 0 20.177 0h-.894C8.634 0 0 8.634 0 19.283v.894C0 30.826 8.634 39.46 19.283 39.46v-.005Z" fill="#06F"/><path d="M63.412 39.678c-2.205 0-3.916-.29-5.127-.876-1.212-.58-2.051-1.41-2.518-2.49-.468-1.076-.7-2.36-.7-3.848V16.266H50.55v-4.628h4.71l1.64-8.262h4.71v8.235h6.215v4.655H61.61l.027 15.957c0 .826.095 1.43.281 1.815.19.386.495.635.917.753.422.118.98.177 1.683.177h3.444v4.143c-.377.145-.93.272-1.656.39-.726.118-1.693.172-2.89.172l-.005.005ZM83.207 40c-2.672 0-5.027-.567-7.064-1.71-2.038-1.14-3.626-2.768-4.764-4.883-1.14-2.114-1.711-4.637-1.711-7.558 0-2.922.517-5.386 1.547-7.6 1.03-2.214 2.527-3.961 4.492-5.232 1.965-1.275 4.338-1.91 7.119-1.91 2.781 0 5.05.585 6.915 1.747 1.864 1.166 3.28 2.795 4.25 4.882.967 2.092 1.453 4.533 1.453 7.332v1.992H76.206c-.018 1.579.231 2.976.753 4.197.522 1.22 1.293 2.173 2.314 2.867 1.021.69 2.287 1.035 3.793 1.035 1.507 0 2.882-.345 4.025-1.035 1.139-.69 1.896-1.742 2.273-3.162h5.975c-.322 1.937-1.088 3.58-2.3 4.923a11.803 11.803 0 0 1-4.415 3.067A14.36 14.36 0 0 1 83.202 40h.005Zm-7.024-17.005H89.26c0-1.343-.236-2.56-.713-3.644-.476-1.084-1.188-1.946-2.137-2.581-.953-.636-2.15-.953-3.607-.953-1.456 0-2.645.35-3.634 1.048a6.608 6.608 0 0 0-2.232 2.704 8.164 8.164 0 0 0-.754 3.43v-.004ZM111.566 40c-2.55 0-4.814-.558-6.792-1.683-1.983-1.121-3.539-2.754-4.669-4.896-1.13-2.142-1.697-4.732-1.697-7.763 0-3.031.531-5.422 1.602-7.6 1.066-2.178 2.582-3.884 4.546-5.113 1.965-1.23 4.301-1.843 7.01-1.843 2.169 0 4.079.432 5.731 1.294a10.432 10.432 0 0 1 3.97 3.58c.993 1.524 1.592 3.257 1.787 5.195h-5.571a6.525 6.525 0 0 0-.944-2.41 5.634 5.634 0 0 0-1.951-1.855c-.817-.477-1.806-.713-2.972-.713-2.101 0-3.793.772-5.086 2.314-1.293 1.543-1.938 3.911-1.938 7.105 0 2.94.617 5.282 1.843 7.024 1.225 1.742 2.99 2.609 5.285 2.609 1.148 0 2.133-.254 2.959-.767.825-.513 1.474-1.148 1.951-1.91.476-.762.775-1.529.903-2.3h5.435c-.163 1.883-.744 3.561-1.747 5.031-1.007 1.47-2.332 2.623-3.983 3.458-1.652.835-3.544 1.252-5.676 1.252l.004-.009Zm27.24 0c-2.55 0-4.814-.558-6.792-1.683-1.983-1.121-3.539-2.754-4.669-4.896-1.129-2.142-1.697-4.732-1.697-7.763 0-3.031.531-5.422 1.602-7.6 1.066-2.178 2.582-3.884 4.546-5.113 1.965-1.23 4.302-1.843 7.01-1.843 2.169 0 4.079.432 5.731 1.294a10.425 10.425 0 0 1 3.97 3.58c.994 1.524 1.592 3.257 1.788 5.195h-5.572a6.491 6.491 0 0 0-.944-2.41 5.625 5.625 0 0 0-1.951-1.855c-.817-.477-1.806-.713-2.972-.713-2.1 0-3.793.772-5.086 2.314-1.293 1.543-1.937 3.911-1.937 7.105 0 2.94.617 5.282 1.842 7.024 1.229 1.738 2.99 2.609 5.286 2.609 1.148 0 2.132-.254 2.958-.767.826-.513 1.474-1.148 1.951-1.91.476-.762.776-1.529.903-2.3h5.435c-.163 1.883-.744 3.561-1.746 5.031-1.008 1.47-2.333 2.623-3.984 3.458-1.652.835-3.544 1.252-5.676 1.252l.004-.009Zm23.303 0c-1.774 0-3.366-.327-4.777-.98-1.407-.653-2.514-1.597-3.308-2.827-.799-1.23-1.198-2.722-1.198-4.478 0-3.067 1.107-5.381 3.321-6.942 2.215-1.56 5.745-2.377 10.59-2.45l4.17-.109v-1.883c0-1.47-.436-2.622-1.302-3.457-.871-.835-2.219-1.243-4.052-1.225-1.361.018-2.6.336-3.711.953-1.112.617-1.847 1.656-2.205 3.108h-5.572c.109-1.902.658-3.494 1.656-4.778.994-1.284 2.364-2.241 4.102-2.881 1.737-.635 3.747-.953 6.025-.953 2.654 0 4.818.35 6.484 1.048 1.669.699 2.899 1.71 3.688 3.026.79 1.32 1.185 2.913 1.185 4.778v19.506h-5.518l-.54-5.005c-.984 2.1-2.246 3.548-3.779 4.347-1.534.798-3.29 1.197-5.259 1.197V40Zm2.128-4.437c.808 0 1.606-.15 2.396-.445a7.628 7.628 0 0 0 2.137-1.211c.635-.513 1.148-1.08 1.533-1.711a3.896 3.896 0 0 0 .604-1.965v-4.387l-3.417.054c-1.687.018-3.162.195-4.428.54-1.266.34-2.246.885-2.945 1.63-.698.743-1.048 1.737-1.048 2.971 0 1.416.495 2.523 1.48 3.321.984.799 2.214 1.198 3.684 1.198l.004.005Zm16.975 3.897V11.638h6.27v6.025c.449-1.379 1.089-2.559 1.924-3.539a8.58 8.58 0 0 1 2.944-2.246c1.13-.521 2.36-.78 3.685-.78a8.1 8.1 0 0 1 .943.054c.304.037.531.1.672.191v6.27a2.554 2.554 0 0 0-.767-.19 7.292 7.292 0 0 0-.821-.055c-1.343-.108-2.532-.054-3.566.164-1.03.218-1.901.58-2.609 1.089a4.875 4.875 0 0 0-1.602 1.937c-.358.78-.54 1.692-.54 2.732v16.17h-6.538.005Zm31.818.218c-2.205 0-3.915-.29-5.127-.876-1.211-.58-2.051-1.41-2.513-2.49-.468-1.076-.699-2.36-.699-3.848V16.266h-4.519v-4.628h4.709l1.643-8.262h4.71v8.235h6.216v4.655h-6.216l.027 15.957c0 .826.095 1.43.281 1.815.186.386.495.635.917.753.422.118.98.177 1.683.177h3.444v4.143c-.377.145-.93.272-1.656.39-.726.118-1.693.172-2.895.172l-.005.005Z" fill="#fff"/></g><defs><clipPath id="a"><path fill="#fff" d="M0 0h218.125v40H0z"/></clipPath></defs></svg>